<svg width="24" height="24" viewBox="0 0 24 24" fill="none" xmlns="http://www.w3.org/2000/svg">
<g id="Buy">
<path id="Buy_2" fill-rule="evenodd" clip-rule="evenodd" d="M1.3575 0.929465L1.23914 0.917087C0.808429 0.901342 0.421637 1.20593 0.346091 1.64242L0.333713 1.76078C0.317968 2.19149 0.62256 2.57828 1.05905 2.65383L2.81956 2.95831L3.88651 15.67L3.90859 15.861C4.12325 17.3106 5.37001 18.4003 6.85494 18.4003H19.5856L19.7773 18.3942C21.1731 18.3051 22.3303 17.2496 22.534 15.8474L23.6413 8.19596L23.6604 8.02021C23.7623 6.62129 22.654 5.40715 21.2271 5.40715H4.78072L4.50687 2.13846L4.48623 2.00913C4.40638 1.67276 4.13294 1.40983 3.78416 1.34947L1.3575 0.929465ZM6.71968 16.643C6.14186 16.5797 5.67976 16.1157 5.63041 15.5241L4.92772 7.15715H21.2271L21.3299 7.16471C21.6983 7.21947 21.9644 7.56396 21.9093 7.9454L20.8021 15.5963L20.7744 15.7331C20.6339 16.2681 20.1493 16.6503 19.5856 16.6503H6.85494L6.71968 16.643ZM4.89307 22.0162C4.89307 21.0407 5.68369 20.2487 6.65941 20.2487C7.63499 20.2487 8.42691 21.0406 8.42691 22.0162C8.42691 22.9919 7.63486 23.7825 6.65941 23.7825C5.68382 23.7825 4.89307 22.9917 4.89307 22.0162ZM18.0197 22.0162C18.0197 21.0406 18.8116 20.2487 19.7872 20.2487C20.7628 20.2487 21.5547 21.0406 21.5547 22.0162C21.5547 22.9919 20.7627 23.7825 19.7872 23.7825C18.8118 23.7825 18.0197 22.9919 18.0197 22.0162ZM18.5899 10.5941C18.5899 10.1109 18.1981 9.71915 17.7149 9.71915H14.4797L14.361 9.72713C13.9339 9.78507 13.6047 10.1512 13.6047 10.5941C13.6047 11.0774 13.9964 11.4691 14.4797 11.4691H17.7149L17.8336 11.4612C18.2607 11.4032 18.5899 11.0371 18.5899 10.5941Z" fill="#A50413"/>
</g>
</svg>
