<svg width="16" height="16" viewBox="0 0 16 16" fill="none" xmlns="http://www.w3.org/2000/svg">
<g id="Outline / Mesages, Conversation /  Letter">
<path id="Vector" fill-rule="evenodd" clip-rule="evenodd" d="M6.6291 2.1665H9.37099C10.5962 2.16649 11.5666 2.16649 12.3261 2.26859C13.1077 2.37368 13.7403 2.59509 14.2392 3.094C14.7381 3.59291 14.9595 4.22554 15.0646 5.00716C15.1667 5.76663 15.1667 6.73706 15.1667 7.96223V8.03745C15.1667 9.26262 15.1667 10.233 15.0646 10.9925C14.9595 11.7741 14.7381 12.4068 14.2392 12.9057C13.7403 13.4046 13.1077 13.626 12.3261 13.7311C11.5666 13.8332 10.5962 13.8332 9.37098 13.8332H6.6291C5.40393 13.8332 4.4335 13.8332 3.67403 13.7311C2.89241 13.626 2.25978 13.4046 1.76087 12.9057C1.26196 12.4068 1.04055 11.7741 0.935464 10.9925C0.833355 10.233 0.833364 9.26262 0.833374 8.03745V7.96223C0.833364 6.73705 0.833355 5.76663 0.935464 5.00716C1.04055 4.22554 1.26196 3.59291 1.76087 3.094C2.25978 2.59509 2.89241 2.37368 3.67403 2.26859C4.4335 2.16649 5.40392 2.16649 6.6291 2.1665ZM3.80727 3.25968C3.13655 3.34985 2.75012 3.51897 2.46798 3.80111C2.18584 4.08325 2.01672 4.46968 1.92655 5.1404C1.83444 5.82551 1.83337 6.72862 1.83337 7.99984C1.83337 9.27105 1.83444 10.1742 1.92655 10.8593C2.01672 11.53 2.18584 11.9164 2.46798 12.1986C2.75012 12.4807 3.13655 12.6498 3.80727 12.74C4.49238 12.8321 5.39549 12.8332 6.66671 12.8332H9.33337C10.6046 12.8332 11.5077 12.8321 12.1928 12.74C12.8635 12.6498 13.25 12.4807 13.5321 12.1986C13.8142 11.9164 13.9834 11.53 14.0735 10.8593C14.1656 10.1742 14.1667 9.27105 14.1667 7.99984C14.1667 6.72862 14.1656 5.82551 14.0735 5.1404C13.9834 4.46968 13.8142 4.08325 13.5321 3.80111C13.25 3.51897 12.8635 3.34985 12.1928 3.25968C11.5077 3.16757 10.6046 3.1665 9.33337 3.1665H6.66671C5.39549 3.1665 4.49238 3.16757 3.80727 3.25968ZM3.61593 5.01308C3.79271 4.80094 4.10799 4.77228 4.32013 4.94906L5.7594 6.14845C6.38137 6.66676 6.81319 7.02545 7.17776 7.25992C7.53067 7.4869 7.76999 7.56309 8.00004 7.56309C8.23009 7.56309 8.46941 7.4869 8.82232 7.25992C9.18689 7.02545 9.61871 6.66676 10.2407 6.14845L11.6799 4.94906C11.8921 4.77228 12.2074 4.80094 12.3842 5.01308C12.5609 5.22522 12.5323 5.5405 12.3201 5.71728L10.8558 6.93755C10.2649 7.42999 9.78596 7.82912 9.36326 8.10099C8.92293 8.38419 8.49409 8.56309 8.00004 8.56309C7.50599 8.56309 7.07716 8.38419 6.63683 8.10099C6.21412 7.82912 5.73518 7.42999 5.14428 6.93756L3.67995 5.71728C3.46781 5.5405 3.43915 5.22522 3.61593 5.01308Z" fill="white"/>
</g>
</svg>
