<svg width="16" height="16" viewBox="0 0 16 16" fill="none" xmlns="http://www.w3.org/2000/svg">
<g id="Outline / Map &#38; Location / Map Point">
<path id="Vector" fill-rule="evenodd" clip-rule="evenodd" d="M2.16663 6.76236C2.16663 3.49634 4.76997 0.833496 7.99996 0.833496C11.23 0.833496 13.8333 3.49634 13.8333 6.76236C13.8333 8.33909 13.3839 10.0321 12.5896 11.4947C11.7962 12.9556 10.637 14.225 9.18697 14.9028C8.43367 15.2549 7.56625 15.2549 6.81295 14.9028C5.36287 14.225 4.2037 12.9556 3.41033 11.4947C2.61598 10.0321 2.16663 8.33909 2.16663 6.76236ZM7.99996 1.8335C5.33891 1.8335 3.16663 4.03182 3.16663 6.76236C3.16663 8.16041 3.56838 9.69044 4.2891 11.0175C5.01079 12.3463 6.03064 13.4333 7.23639 13.9968C7.72133 14.2235 8.27859 14.2235 8.76353 13.9968C9.96928 13.4333 10.9891 12.3463 11.7108 11.0175C12.4315 9.69044 12.8333 8.16041 12.8333 6.76236C12.8333 4.03182 10.661 1.8335 7.99996 1.8335ZM7.99996 5.16683C7.17153 5.16683 6.49996 5.8384 6.49996 6.66683C6.49996 7.49526 7.17153 8.16683 7.99996 8.16683C8.82839 8.16683 9.49996 7.49526 9.49996 6.66683C9.49996 5.8384 8.82839 5.16683 7.99996 5.16683ZM5.49996 6.66683C5.49996 5.28612 6.61925 4.16683 7.99996 4.16683C9.38067 4.16683 10.5 5.28612 10.5 6.66683C10.5 8.04754 9.38067 9.16683 7.99996 9.16683C6.61925 9.16683 5.49996 8.04754 5.49996 6.66683Z" fill="white"/>
</g>
</svg>
