<svg width="16" height="16" viewBox="0 0 16 16" fill="none" xmlns="http://www.w3.org/2000/svg">
<g id="phone">
<path id="Vector 2186" d="M5.03383 0.533203H2.66666C1.48845 0.533203 0.533325 1.48833 0.533325 2.66654V4.79987C0.533325 10.6909 5.30895 15.4665 11.2 15.4665H13.3333C14.5115 15.4665 15.4667 14.5114 15.4667 13.3332V11.8591C15.4667 11.4551 15.2384 11.0857 14.877 10.9051L12.3 9.61655C11.7194 9.32626 11.0163 9.61749 10.8111 10.2333L10.4935 11.1862C10.2877 11.8034 9.65458 12.1708 9.01662 12.0432C6.46323 11.5325 4.46734 9.53663 3.95667 6.98324C3.82907 6.34528 4.1965 5.71215 4.81371 5.50641L5.99625 5.11223C6.52502 4.93597 6.82894 4.38233 6.69376 3.8416L6.06865 1.34117C5.94994 0.86632 5.52329 0.533203 5.03383 0.533203Z" stroke="white"/>
</g>
</svg>
